<svg width="24" height="24" viewBox="0 0 24 24" fill="none" xmlns="http://www.w3.org/2000/svg">
<path fill-rule="evenodd" clip-rule="evenodd" d="M16.4352 4.13947C16.4352 5.18299 15.5892 6.02894 14.5457 6.02894C13.5022 6.02894 12.6562 5.18299 12.6562 4.13947C12.6562 3.09594 13.5022 2.25 14.5457 2.25C15.5892 2.25 16.4352 3.09594 16.4352 4.13947ZM11.25 6.60375C11.25 8.46771 9.73896 9.97875 7.875 9.97875C6.01104 9.97875 4.5 8.46771 4.5 6.60375C4.5 4.73979 6.01104 3.22875 7.875 3.22875C9.73896 3.22875 11.25 4.73979 11.25 6.60375ZM9.41748 13.6031V11.2306C10.7567 10.7844 11.8375 9.77303 12.3769 8.47943H14.7425V13.2428L19.0228 20.2397C19.4888 21.0014 18.9407 21.9794 18.0477 21.9794H6.33545C5.44268 21.9794 4.8945 21.0018 5.36015 20.24L9.41748 13.6031Z" fill="url(#paint0_linear_3197_64345)"/>
<defs>
<linearGradient id="paint0_linear_3197_64345" x1="22.5483" y1="-1.4575" x2="1.47229" y2="14.238" gradientUnits="userSpaceOnUse">
<stop offset="0.123144" stop-color="#EBFF38"/>
<stop offset="1" stop-color="#3DD6F5"/>
</linearGradient>
</defs>
</svg>
