<svg width="24" height="24" viewBox="0 0 24 24" fill="none" xmlns="http://www.w3.org/2000/svg">
<path d="M20.25 5.44727V10.8945C20.2499 15.9333 16.7299 20.6451 12 21.7891C7.27005 20.6451 3.75007 15.9333 3.75 10.8945V5.44727L12 1.81543L20.25 5.44727ZM14.1582 8.2334C13.3905 8.2334 12.6538 8.58738 12.1729 9.14258C11.692 8.58743 10.9551 8.23347 10.1875 8.2334C8.82858 8.2334 7.76074 9.28685 7.76074 10.6377C7.76084 12.2857 9.26106 13.6363 11.5332 15.6777L12.1729 16.2549L12.8125 15.6777C15.0846 13.6363 16.5849 12.2857 16.585 10.6377C16.585 9.28687 15.5171 8.23342 14.1582 8.2334Z" fill="url(#paint0_linear_3197_64333)"/>
<defs>
<linearGradient id="paint0_linear_3197_64333" x1="25.9985" y1="1.81543" x2="1.51993" y2="23.183" gradientUnits="userSpaceOnUse">
<stop offset="0.123144" stop-color="#FF386B"/>
<stop offset="1" stop-color="#A34FDE"/>
</linearGradient>
</defs>
</svg>
