<svg width="24" height="24" viewBox="0 0 24 24" fill="none" xmlns="http://www.w3.org/2000/svg">
<path d="M17.373 3.75C20.2271 3.75034 22.541 6.06476 22.541 8.91895C22.5407 11.3825 20.8161 13.4411 18.5088 13.959C18.387 13.5155 18.2217 13.0905 18.0166 12.6885C19.7232 12.2826 20.993 10.7497 20.9932 8.91895C20.9931 6.77842 19.2576 5.04335 17.1172 5.04297C14.9764 5.04297 13.2403 6.77819 13.2402 8.91895C13.2402 8.98509 13.2409 9.05088 13.2441 9.11621C12.8414 9.04127 12.4264 9.00098 12.002 9.00098H6.00391C6.00348 8.97368 6.00196 8.94635 6.00195 8.91895C6.00195 6.06456 8.31651 3.75 11.1709 3.75H17.373Z" fill="url(#paint0_linear_3197_64341)"/>
<path d="M12.1201 10.501C14.9744 10.501 17.2889 12.8147 17.2891 15.6689C17.2891 18.5233 14.9745 20.8379 12.1201 20.8379H5.91797C3.06375 20.8377 0.75 18.5232 0.75 15.6689C0.750193 12.8148 3.06386 10.5012 5.91797 10.501H12.1201ZM6.17383 11.793C4.03324 11.7932 2.29785 13.5283 2.29785 15.6689C2.29789 17.8096 4.03326 19.5447 6.17383 19.5449C8.3146 19.5449 10.0507 17.8097 10.0508 15.6689C10.0508 13.5282 8.31462 11.793 6.17383 11.793Z" fill="url(#paint1_linear_3197_64341)"/>
<defs>
<linearGradient id="paint0_linear_3197_64341" x1="26.8146" y1="1.91238" x2="14.6463" y2="21.8463" gradientUnits="userSpaceOnUse">
<stop offset="0.123144" stop-color="#405BFF"/>
<stop offset="1" stop-color="#3DD6F5"/>
</linearGradient>
<linearGradient id="paint1_linear_3197_64341" x1="21.5626" y1="8.64033" x2="9.17229" y2="28.6868" gradientUnits="userSpaceOnUse">
<stop offset="0.123144" stop-color="#405BFF"/>
<stop offset="1" stop-color="#3DD6F5"/>
</linearGradient>
</defs>
</svg>
