<svg width="18" height="18" viewBox="0 0 18 18" fill="none" xmlns="http://www.w3.org/2000/svg">
<g id="nav icons">
<path id="Vector" d="M15.75 3.75C14.9175 3.4875 14.0025 3.375 13.125 3.375C11.6625 3.375 10.0875 3.675 9 4.5C7.9125 3.675 6.3375 3.375 4.875 3.375C3.4125 3.375 1.8375 3.675 0.75 4.5V16.125C1.8375 15.3 3.4125 15 4.875 15C6.3375 15 7.9125 15.3 9 16.125C10.0875 15.3 11.6625 15 13.125 15C14.0025 15 14.9175 15.1125 15.75 15.375C16.3125 15.5625 16.8 15.7875 17.25 16.125V4.5C16.8 4.1625 16.3125 3.9375 15.75 3.75ZM15.75 13.875C14.925 13.6125 14.025 13.5 13.125 13.5C11.85 13.5 10.0125 13.9875 9 14.625V6C10.0125 5.3625 11.85 4.875 13.125 4.875C14.025 4.875 14.925 4.9875 15.75 5.25V13.875Z" fill="#191919"/>
</g>
</svg>
