<svg width="23" height="18" viewBox="0 0 23 18" fill="none" xmlns="http://www.w3.org/2000/svg">
<g id="Vector">
<path d="M20.7 0H2.3C1.035 0 0.0115 1.0125 0.0115 2.25L0 15.75C0 16.9875 1.035 18 2.3 18H20.7C21.965 18 23 16.9875 23 15.75V2.25C23 1.0125 21.965 0 20.7 0ZM20.7 4.5L11.5 10.125L2.3 4.5V2.25L11.5 7.875L20.7 2.25V4.5Z" fill="white"/>
<path d="M20.7 0H2.3C1.035 0 0.0115 1.0125 0.0115 2.25L0 15.75C0 16.9875 1.035 18 2.3 18H20.7C21.965 18 23 16.9875 23 15.75V2.25C23 1.0125 21.965 0 20.7 0ZM20.7 4.5L11.5 10.125L2.3 4.5V2.25L11.5 7.875L20.7 2.25V4.5Z" fill="url(#paint0_linear_4018_32638)"/>
</g>
<defs>
<linearGradient id="paint0_linear_4018_32638" x1="11.5" y1="0" x2="11.5" y2="18" gradientUnits="userSpaceOnUse">
<stop stop-color="white"/>
<stop offset="1" stop-color="white" stop-opacity="0"/>
</linearGradient>
</defs>
</svg>
