<svg width="18" height="18" viewBox="0 0 18 18" fill="none" xmlns="http://www.w3.org/2000/svg">
<g id="nav icons">
<path id="Vector" d="M14.25 6C14.67 6 15 6.3225 15 6.75C15 6.94891 14.921 7.13968 14.7803 7.28033C14.6397 7.42098 14.4489 7.5 14.25 7.5C13.8225 7.5 13.5 7.1625 13.5 6.75C13.5 6.3225 13.8225 6 14.25 6ZM1.5 1.5V8.25C1.5 10.47 3.1425 12.375 5.355 12.6825C5.82 14.94 7.815 16.5 10.125 16.5C10.7652 16.5 11.3991 16.3739 11.9906 16.1289C12.582 15.8839 13.1195 15.5248 13.5721 15.0721C14.0248 14.6195 14.3839 14.082 14.6289 13.4906C14.8739 12.8991 15 12.2652 15 11.625V8.8575C15.87 8.5425 16.5 7.7175 16.5 6.75C16.5 6.15326 16.2629 5.58097 15.841 5.15901C15.419 4.73705 14.8467 4.5 14.25 4.5C13.6533 4.5 13.081 4.73705 12.659 5.15901C12.2371 5.58097 12 6.15326 12 6.75C12 7.7175 12.63 8.55 13.5 8.8575V11.5575C13.5 13.4325 12 14.9325 10.125 14.9325C8.625 14.9325 7.365 14.025 6.915 12.675C9 12.225 10.5 10.35 10.5 8.25V1.5H7.5V3.75H9V8.25C9 9.04565 8.68393 9.80871 8.12132 10.3713C7.55871 10.9339 6.79565 11.25 6 11.25C5.20435 11.25 4.44129 10.9339 3.87868 10.3713C3.31607 9.80871 3 9.04565 3 8.25V3.75H4.5V1.5H1.5Z" fill="#191919"/>
</g>
</svg>
