<svg width="19" height="18" viewBox="0 0 19 18" fill="none" xmlns="http://www.w3.org/2000/svg">
<path d="M14.1177 5.67603C17.8806 5.67603 18.5789 8.16415 18.5789 11.3909L18.6177 18H14.8935V12.1685C14.8935 10.7689 14.8547 8.98056 12.9539 8.98056C11.0142 8.98056 10.7039 10.4968 10.7039 12.0518V18H6.97974V5.98704H10.5487V7.61987H10.5875C11.3246 6.37581 12.6823 5.63715 14.1177 5.67603ZM4.65216 5.98704V18H0.928021V5.98704H4.65216ZM2.79009 0C3.99268 0 4.9625 0.971922 4.9625 2.17711C4.9625 3.38229 3.99268 4.35421 2.79009 4.35421C1.5875 4.35421 0.617676 3.38229 0.617676 2.17711C0.617676 0.971922 1.5875 0 2.79009 0Z" fill="white"/>
<path d="M14.1177 5.67603C17.8806 5.67603 18.5789 8.16415 18.5789 11.3909L18.6177 18H14.8935V12.1685C14.8935 10.7689 14.8547 8.98056 12.9539 8.98056C11.0142 8.98056 10.7039 10.4968 10.7039 12.0518V18H6.97974V5.98704H10.5487V7.61987H10.5875C11.3246 6.37581 12.6823 5.63715 14.1177 5.67603ZM4.65216 5.98704V18H0.928021V5.98704H4.65216ZM2.79009 0C3.99268 0 4.9625 0.971922 4.9625 2.17711C4.9625 3.38229 3.99268 4.35421 2.79009 4.35421C1.5875 4.35421 0.617676 3.38229 0.617676 2.17711C0.617676 0.971922 1.5875 0 2.79009 0Z" fill="url(#paint0_linear)"/>
<defs>
<linearGradient id="paint0_linear" x1="9.61768" y1="0" x2="9.61768" y2="18" gradientUnits="userSpaceOnUse">
<stop stop-color="white"/>
<stop offset="1" stop-color="white" stop-opacity="0"/>
</linearGradient>
</defs>
</svg>
