<svg width="23" height="16" viewBox="0 0 23 16" fill="none" xmlns="http://www.w3.org/2000/svg">
<path fill-rule="evenodd" clip-rule="evenodd" d="M9.61768 12V5L15.6177 8.50013L9.61768 12ZM22.1579 2.49845C21.9049 1.51497 21.1594 0.740516 20.2129 0.477677C18.4973 -8.9407e-08 11.6177 0 11.6177 0C11.6177 0 4.73805 -8.9407e-08 3.02243 0.477677C2.07593 0.740516 1.33043 1.51497 1.07743 2.49845C0.617676 4.2809 0.617676 8 0.617676 8C0.617676 8 0.617676 11.719 1.07743 13.5015C1.33043 14.485 2.07593 15.2595 3.02243 15.5225C4.73805 16 11.6177 16 11.6177 16C11.6177 16 18.4973 16 20.2129 15.5225C21.1594 15.2595 21.9049 14.485 22.1579 13.5015C22.6177 11.719 22.6177 8 22.6177 8C22.6177 8 22.6177 4.2809 22.1579 2.49845Z" fill="white"/>
<path fill-rule="evenodd" clip-rule="evenodd" d="M9.61768 12V5L15.6177 8.50013L9.61768 12ZM22.1579 2.49845C21.9049 1.51497 21.1594 0.740516 20.2129 0.477677C18.4973 -8.9407e-08 11.6177 0 11.6177 0C11.6177 0 4.73805 -8.9407e-08 3.02243 0.477677C2.07593 0.740516 1.33043 1.51497 1.07743 2.49845C0.617676 4.2809 0.617676 8 0.617676 8C0.617676 8 0.617676 11.719 1.07743 13.5015C1.33043 14.485 2.07593 15.2595 3.02243 15.5225C4.73805 16 11.6177 16 11.6177 16C11.6177 16 18.4973 16 20.2129 15.5225C21.1594 15.2595 21.9049 14.485 22.1579 13.5015C22.6177 11.719 22.6177 8 22.6177 8C22.6177 8 22.6177 4.2809 22.1579 2.49845Z" fill="url(#paint0_linear)"/>
<defs>
<linearGradient id="paint0_linear" x1="11.6177" y1="0" x2="11.6177" y2="16" gradientUnits="userSpaceOnUse">
<stop stop-color="white"/>
<stop offset="1" stop-color="white" stop-opacity="0"/>
</linearGradient>
</defs>
</svg>
