<?xml version="1.0" encoding="UTF-8"?>
<svg width="20px" height="20px" viewBox="0 0 20 20" version="1.1" xmlns="http://www.w3.org/2000/svg" xmlns:xlink="http://www.w3.org/1999/xlink">
    <title>instagram-icon</title>
    <g id="Page-1" stroke="none" stroke-width="1" fill="none" fill-rule="evenodd">
        <path d="M5.8584755,0.0699383197 C4.79446473,0.120138828 4.06785738,0.289940546 3.43265095,0.539543072 C2.7752443,0.795745665 2.21803866,1.13954914 1.66363305,1.69595477 C1.10922744,2.25236041 0.767823985,2.80996605 0.513421411,3.46837271 C0.267218919,4.10497915 0.100417231,4.83218651 0.0534167558,5.89679729 C0.00641628014,6.96140806 -0.00398382511,7.30361152 0.00121622752,10.019239 C0.00641628014,12.7348665 0.0184164016,13.0752699 0.0700169238,14.1420807 C0.120817438,15.2058915 0.29001915,15.9322988 0.539621676,16.5677053 C0.796224273,17.2251119 1.13962775,17.7821176 1.69623338,18.3367232 C2.25283901,18.8913288 2.81004465,19.2319322 3.47005133,19.4867348 C4.10605777,19.7325373 4.83346513,19.900139 5.8978759,19.9467395 C6.96228667,19.9933399 7.30489014,20.00414 10.0197176,19.99894 C12.7345451,19.9937399 13.0763485,19.9817398 14.1429593,19.9311393 C15.2095701,19.8805388 15.9321774,19.7101371 16.5677839,19.4617346 C17.2251905,19.204532 17.7825962,18.8617285 18.3368018,18.3049229 C18.8910074,17.7481172 19.2322108,17.1901116 19.4864134,16.5313049 C19.7328159,15.8952985 19.9002176,15.1678911 19.9464181,14.1042803 C19.9930185,13.0368695 20.0040186,12.6960661 19.9988186,9.98083861 C19.9936185,7.26561114 19.9814184,6.92520769 19.9308179,5.8587969 C19.8802174,4.79238611 19.7108157,4.06817878 19.4614132,3.43237235 C19.2044106,2.77496569 18.8614071,2.21836006 18.3050015,1.66335444 C17.7485958,1.10834883 17.1901902,0.767345377 16.5315835,0.513742811 C15.8951771,0.267540319 15.1681697,0.0997386212 14.1037589,0.0537381557 C13.0393482,0.0077376902 12.6967447,-0.00406242921 9.98091722,0.00113762341 C7.26508974,0.00633767603 6.9250863,0.0179377934 5.8584755,0.0699383197 M5.97527668,18.1477213 C5.00026682,18.1053208 4.47086146,17.9433192 4.11805789,17.8077178 C3.65085316,17.627716 3.31804979,17.4101138 2.96644623,17.0619103 C2.61484268,16.7137067 2.39884049,16.3797034 2.21643864,15.9134987 C2.07943726,15.5606951 1.91443559,15.0318897 1.86883513,14.0568799 C1.81923463,13.0030692 1.80883452,12.686666 1.80303446,10.016839 C1.7972344,7.34701196 1.80743451,7.03100876 1.85363497,5.9767981 C1.89523539,5.00258824 2.05823704,4.47258287 2.19363841,4.1199793 C2.37364024,3.65217457 2.59044243,3.31997121 2.93944596,2.96856765 C3.28844949,2.6171641 3.62145286,2.40076191 4.08805759,2.21836006 C4.44046115,2.08075867 4.9692665,1.91715701 5.94387637,1.87075654 C6.99848704,1.82075604 7.31449024,1.81075594 9.98391725,1.80495588 C12.6533443,1.79915582 12.9701475,1.80915592 14.0251581,1.85555639 C14.999368,1.89795682 15.5295734,2.05935845 15.8817769,2.19555983 C16.3491817,2.37556165 16.681785,2.59176384 17.0331886,2.94136738 C17.3845921,3.29097092 17.6011943,3.62277427 17.7835962,4.09037901 C17.9213976,4.44178256 18.0849992,4.97038791 18.1309997,5.94559778 C18.1812002,7.00020845 18.1926003,7.31641165 18.1974004,9.98563866 C18.2022004,12.6548657 18.1928003,12.9718689 18.1465999,14.0256795 C18.1039994,15.0006894 17.9423978,15.5302948 17.8065964,15.8834983 C17.6265946,16.3505031 17.4095924,16.6835064 17.0603889,17.03471 C16.7111853,17.3859136 16.378582,17.6023157 15.9117772,17.7847176 C15.5597737,17.922119 15.0303683,18.0861206 14.0565585,18.1325211 C13.0019478,18.1821216 12.6859446,18.1925217 10.0155176,18.1983218 C7.34509055,18.2041218 7.03008736,18.1933217 5.97547669,18.1477213 M14.1275575,4.65538472 C14.1283691,5.14077968 14.4215153,5.57788415 14.870287,5.76285144 C15.3190587,5.94781872 15.8350642,5.84421702 16.1776609,5.5003617 C16.5202575,5.15650637 16.6219662,4.64012439 16.4353543,4.19203404 C16.2487425,3.7439437 15.810566,3.45240244 15.3251713,3.45337015 C14.6625788,3.45469682 14.1264535,3.99279186 14.1275575,4.65538472 M4.86545594,10.0100389 C4.87106551,12.8460676 7.17428882,15.1398908 10.0097175,15.1345003 C12.8451462,15.1290907 15.1405694,12.8260674 15.1351789,9.99003871 C15.1297693,7.15401001 12.825946,4.85958679 9.99011731,4.86517662 C7.15428861,4.8707869 4.8600654,7.17441021 4.86545594,10.0100389 M6.66667702,10.0064389 C6.66304218,8.16543956 8.15251371,6.67006205 9.99351302,6.66641148 C11.8345123,6.66277425 13.3298918,8.15224382 13.3335448,9.99324312 C13.3371844,11.8342424 11.8477168,13.3296238 10.0067175,13.3332799 C9.12260304,13.3351309 8.27397318,12.9856444 7.64757191,12.3617187 C7.02117064,11.737793 6.66832635,10.8905537 6.66667702,10.0064389" id="instagram-icon" fill="#FFFFFF" fill-rule="nonzero"></path>
    </g>
</svg>