<svg width="18" height="18" viewBox="0 0 18 18" fill="none" xmlns="http://www.w3.org/2000/svg">
<g id="nav icons">
<path id="Vector" d="M9.66667 9.66667H13V11H9.66667M9.66667 7H13V8.33333H9.66667M7.72667 5.94L8.66667 6.88L6.54667 9L8.66667 11.12L7.72667 12.0667L4.66667 9M4.33333 3C3.59333 3 3 3.6 3 4.33333V13.6667C3 14.0203 3.14048 14.3594 3.39052 14.6095C3.64057 14.8595 3.97971 15 4.33333 15H13.6667C14.0203 15 14.3594 14.8595 14.6095 14.6095C14.8595 14.3594 15 14.0203 15 13.6667V4.33333C15 3.97971 14.8595 3.64057 14.6095 3.39052C14.3594 3.14048 14.0203 3 13.6667 3H4.33333Z" fill="#191919"/>
</g>
</svg>
