<svg width="39" height="39" viewBox="0 0 39 39" fill="none" xmlns="http://www.w3.org/2000/svg">
<path d="M19.8429 39C19.5429 39 19.2429 38.8276 19.0714 38.526C18.9429 38.2243 18.9429 37.9227 19.1571 37.6641L28.2857 25.0376L12.3 31.5878C12.1714 31.6309 12.0857 31.674 11.9572 31.674C11.5714 31.674 11.2286 31.4155 11.1429 31.0707C11.0143 30.726 11.1857 30.3381 11.4857 30.1227L25.5429 21.8055L0.814296 20.3834C0.30001 20.3403 0 19.9525 0 19.5215C0 19.1337 0.257153 18.7028 0.814296 18.6597L25.5429 17.2376L11.4857 8.92044C11.1857 8.70497 11.0143 8.31713 11.1429 7.97238C11.2714 7.62762 11.5714 7.36906 11.9572 7.36906C12.0857 7.36906 12.1714 7.41215 12.3 7.45525L28.2857 14.0055L19.1571 1.33591C18.9857 1.07735 18.9429 0.732597 19.0714 0.474033C19.2 0.172376 19.5 0 19.8429 0C20.0571 0 20.2714 0.0861878 20.4429 0.258564L38.6143 18.4873C38.8714 18.7459 39 19.1337 39 19.4785C39 19.8232 38.8714 20.168 38.6143 20.4696L20.4429 38.7414C20.2714 38.9138 20.0571 39 19.8429 39Z" fill="white"/>
</svg>
