<svg width="18" height="18" viewBox="0 0 18 18" fill="none" xmlns="http://www.w3.org/2000/svg">
<g id="nav icons" clip-path="url(#clip0_5977_1561)">
<path id="Vector" d="M9 14.6818C7.60761 14.6818 6.27226 14.1359 5.28769 13.1641C4.30312 12.1923 3.75 10.8743 3.75 9.5C3.75 8.63636 3.96875 7.79864 4.3625 7.08182L3.085 5.82091C2.4025 6.88318 2 8.14409 2 9.5C2 11.3324 2.7375 13.0898 4.05025 14.3855C5.36301 15.6812 7.14348 16.4091 9 16.4091V19L12.5 15.5455L9 12.0909M9 2.59091V0L5.5 3.45455L9 6.90909V4.31818C10.3924 4.31818 11.7277 4.86412 12.7123 5.8359C13.6969 6.80768 14.25 8.1257 14.25 9.5C14.25 10.3636 14.0312 11.2014 13.6375 11.9182L14.915 13.1791C15.5975 12.1168 16 10.8559 16 9.5C16 7.6676 15.2625 5.91024 13.9497 4.61454C12.637 3.31883 10.8565 2.59091 9 2.59091Z" fill="#191919"/>
</g>
<defs>
<clipPath id="clip0_5977_1561">
<rect width="18" height="18" fill="white"/>
</clipPath>
</defs>
</svg>
