<svg width="18" height="18" viewBox="0 0 18 18" fill="none" xmlns="http://www.w3.org/2000/svg">
<g id="nav icons">
<path id="Vector" d="M16.0498 5.6251C16.6498 6.2251 16.6498 7.2001 16.0498 7.7251L13.9498 9.8251L8.0998 3.9751L10.1998 1.8751C10.7998 1.2751 11.7748 1.2751 12.2998 1.8751L13.6498 3.2251L15.8998 0.975098L16.9498 2.0251L14.6998 4.2751L16.0498 5.6251ZM11.6998 9.9751L10.6498 8.9251L8.5498 11.0251L6.9748 9.4501L9.07481 7.3501L8.02481 6.3001L5.9248 8.4001L4.7998 7.3501L2.6998 9.4501C2.0998 10.0501 2.0998 11.0251 2.6998 11.5501L4.0498 12.9001L1.0498 15.9001L2.0998 16.9501L5.0998 13.9501L6.4498 15.3001C7.0498 15.9001 8.0248 15.9001 8.5498 15.3001L10.6498 13.2001L9.5998 12.1501L11.6998 9.9751Z" fill="black"/>
</g>
</svg>
