<svg width="18" height="18" viewBox="0 0 18 18" fill="none" xmlns="http://www.w3.org/2000/svg">
<g id="nav icons">
<path id="Vector" d="M15.1727 13.2762V12.6571L15.8727 12.1619C15.9364 12.1 16 12.0381 15.9364 11.9762L15.3 10.9238C15.3 10.8619 15.1727 10.8619 15.1091 10.8619L14.3455 11.1714C14.1545 11.0476 13.9636 10.9238 13.7727 10.8619L13.6455 10.0571C13.6455 9.99524 13.5818 9.93333 13.5182 9.93333H12.2455C12.1182 9.93333 12.0545 9.99524 12.0545 10.0571L11.9273 10.8619C11.7364 10.9857 11.6091 11.0476 11.4182 11.1714L10.6545 10.8619C10.5909 10.8619 10.5273 10.8619 10.4636 10.9238L9.82727 11.9762C9.82727 12.0381 9.82727 12.1 9.89091 12.1619L10.5909 12.6571V13.2762L9.89091 13.7714C9.82727 13.8333 9.76364 13.8952 9.82727 13.9571L10.4636 15.0095C10.5273 15.0714 10.5909 15.0714 10.6545 15.0714L11.4182 14.7619C11.5455 14.8857 11.7364 15.0095 11.9273 15.0714L12.0545 15.8762C12.1182 15.9381 12.1818 16 12.2455 16H13.5182C13.5818 16 13.6455 15.9381 13.6455 15.8762L13.7727 15.0714C13.9636 14.9476 14.0909 14.8857 14.2818 14.7619L15.0455 15.0095C15.1091 15.0095 15.1727 15.0095 15.2364 14.9476L15.8727 13.8952C15.9364 13.8333 15.9364 13.7714 15.8727 13.7714L15.1727 13.2762ZM12.8182 13.8333C12.3091 13.8333 11.8636 13.4 11.8636 12.9048C11.8636 12.4095 12.3091 11.9762 12.8182 11.9762C13.3273 11.9762 13.7727 12.4095 13.7727 12.9048C13.7727 13.4 13.3273 13.8333 12.8182 13.8333ZM8.36364 12.9048C8.36364 10.4905 10.3364 8.57143 12.8182 8.57143C14.0909 8.57143 15.1727 9.06667 16 9.87143V4.2381C16 3.55714 15.4273 3 14.7273 3H3.27273C2.57273 3 2 3.55714 2 4.2381V14.1429C2 14.8238 2.57273 15.381 3.27273 15.381H9.19091C8.68182 14.7 8.36364 13.8333 8.36364 12.9048ZM3.27273 4.2381H14.7273V6.09524H3.27273V4.2381Z" fill="#191919"/>
</g>
</svg>
