<svg width="18" height="18" viewBox="0 0 18 18" fill="none" xmlns="http://www.w3.org/2000/svg">
<g id="nav icons">
<path id="Vector" d="M9.75 9.75H13.5V11.25H9.75M9.75 6.75H13.5V8.25H9.75M5.1825 5.5575L8.625 9L5.1825 12.45L4.125 11.385L6.51 9L4.125 6.615M3.75 2.25C2.9175 2.25 2.25 2.925 2.25 3.75V14.25C2.25 14.6478 2.40804 15.0294 2.68934 15.3107C2.97064 15.592 3.35218 15.75 3.75 15.75H14.25C14.6478 15.75 15.0294 15.592 15.3107 15.3107C15.592 15.0294 15.75 14.6478 15.75 14.25V3.75C15.75 3.35218 15.592 2.97064 15.3107 2.68934C15.0294 2.40804 14.6478 2.25 14.25 2.25H3.75Z" fill="#191919"/>
</g>
</svg>
