<svg width="18" height="18" viewBox="0 0 18 18" fill="none" xmlns="http://www.w3.org/2000/svg">
<g id="nav icons">
<path id="Vector" d="M8.25005 4.50007H10.5L12.9675 2.02507C13.0373 1.95478 13.1202 1.89898 13.2116 1.8609C13.303 1.82283 13.401 1.80322 13.5 1.80322C13.5991 1.80322 13.6971 1.82283 13.7885 1.8609C13.8799 1.89898 13.9628 1.95478 14.0325 2.02507L15.9675 3.96757C16.1072 4.10809 16.1856 4.29818 16.1856 4.49632C16.1856 4.69446 16.1072 4.88455 15.9675 5.02507L14.25 6.75007H8.25005V8.25007C8.25005 8.44898 8.17103 8.63975 8.03038 8.7804C7.88973 8.92105 7.69896 9.00007 7.50005 9.00007C7.30114 9.00007 7.11037 8.92105 6.96972 8.7804C6.82907 8.63975 6.75005 8.44898 6.75005 8.25007V6.00007C6.75005 5.60225 6.90808 5.22072 7.18939 4.93941C7.47069 4.65811 7.85222 4.50007 8.25005 4.50007ZM3.75005 8.25007V11.2501L2.03255 12.9676C1.89286 13.1081 1.81445 13.2982 1.81445 13.4963C1.81445 13.6945 1.89286 13.8846 2.03255 14.0251L3.96755 15.9676C4.03727 16.0379 4.12022 16.0937 4.21162 16.1317C4.30301 16.1698 4.40104 16.1894 4.50005 16.1894C4.59906 16.1894 4.69709 16.1698 4.78848 16.1317C4.87987 16.0937 4.96283 16.0379 5.03255 15.9676L8.25005 12.7501H11.25C11.449 12.7501 11.6397 12.6711 11.7804 12.5304C11.921 12.3897 12 12.199 12 12.0001V11.2501H12.75C12.949 11.2501 13.1397 11.1711 13.2804 11.0304C13.421 10.8897 13.5 10.699 13.5 10.5001V9.75007H14.25C14.449 9.75007 14.6397 9.67105 14.7804 9.5304C14.921 9.38975 15 9.19898 15 9.00007V8.25007H9.75005V9.00007C9.75005 9.3979 9.59201 9.77943 9.31071 10.0607C9.0294 10.342 8.64787 10.5001 8.25005 10.5001H6.75005C6.35222 10.5001 5.97069 10.342 5.68939 10.0607C5.40808 9.77943 5.25005 9.3979 5.25005 9.00007V6.75007L3.75005 8.25007Z" fill="#191919"/>
</g>
</svg>
