<svg width="18" height="18" viewBox="0 0 18 18" fill="none" xmlns="http://www.w3.org/2000/svg">
<path d="M10.0016 11.7151C9.33358 11.7151 8.69293 11.4497 8.22058 10.9774C7.74822 10.505 7.48286 9.86438 7.48286 9.19637C7.48286 8.52836 7.74822 7.88771 8.22058 7.41536C8.69293 6.94301 9.33358 6.67764 10.0016 6.67764C10.6696 6.67764 11.3102 6.94301 11.7826 7.41536C12.255 7.88771 12.5203 8.52836 12.5203 9.19637C12.5203 9.86438 12.255 10.505 11.7826 10.9774C11.3102 11.4497 10.6696 11.7151 10.0016 11.7151ZM15.3485 9.89442C15.3773 9.66414 15.3989 9.43385 15.3989 9.19637C15.3989 8.95889 15.3773 8.72141 15.3485 8.47674L16.8669 7.30373C17.0037 7.19578 17.0396 7.00148 16.9533 6.84316L15.514 4.35321C15.4277 4.19489 15.2334 4.13013 15.075 4.19489L13.2831 4.91453C12.9089 4.63387 12.5203 4.3892 12.0669 4.20929L11.8007 2.30225C11.7719 2.12953 11.6208 2 11.4409 2H8.56231C8.38241 2 8.23128 2.12953 8.2025 2.30225L7.93623 4.20929C7.48286 4.3892 7.09425 4.63387 6.72004 4.91453L4.92815 4.19489C4.76983 4.13013 4.57552 4.19489 4.48917 4.35321L3.04989 6.84316C2.95634 7.00148 2.99952 7.19578 3.13625 7.30373L4.65468 8.47674C4.6259 8.72141 4.60431 8.95889 4.60431 9.19637C4.60431 9.43385 4.6259 9.66414 4.65468 9.89442L3.13625 11.089C2.99952 11.197 2.95634 11.3913 3.04989 11.5496L4.48917 14.0395C4.57552 14.1979 4.76983 14.2554 4.92815 14.1979L6.72004 13.471C7.09425 13.7589 7.48286 14.0035 7.93623 14.1835L8.2025 16.0905C8.23128 16.2632 8.38241 16.3927 8.56231 16.3927H11.4409C11.6208 16.3927 11.7719 16.2632 11.8007 16.0905L12.0669 14.1835C12.5203 13.9964 12.9089 13.7589 13.2831 13.471L15.075 14.1979C15.2334 14.2554 15.4277 14.1979 15.514 14.0395L16.9533 11.5496C17.0396 11.3913 17.0037 11.197 16.8669 11.089L15.3485 9.89442Z" fill="#191919"/>
</svg>
