<svg width="17" height="21" viewBox="0 0 17 21" fill="none" xmlns="http://www.w3.org/2000/svg">
<path d="M6.49472 3.26243L6.31794 3.08566L6.14116 3.26243L4.92881 4.47478L4.75026 4.65334L4.93059 4.83009L10.5292 10.3178L4.93059 15.8055L4.75026 15.9822L4.92881 16.1608L6.14116 17.3731L6.31794 17.5499L6.49472 17.3731L13.3733 10.4946L13.5501 10.3178L13.3733 10.141L6.49472 3.26243Z" fill="white"/>
<path d="M6.49472 3.26243L6.31794 3.08566L6.14116 3.26243L4.92881 4.47478L4.75026 4.65334L4.93059 4.83009L10.5292 10.3178L4.93059 15.8055L4.75026 15.9822L4.92881 16.1608L6.14116 17.3731L6.31794 17.5499L6.49472 17.3731L13.3733 10.4946L13.5501 10.3178L13.3733 10.141L6.49472 3.26243Z" fill="url(#paint0_linear_212_2820)"/>
<path d="M6.49472 3.26243L6.31794 3.08566L6.14116 3.26243L4.92881 4.47478L4.75026 4.65334L4.93059 4.83009L10.5292 10.3178L4.93059 15.8055L4.75026 15.9822L4.92881 16.1608L6.14116 17.3731L6.31794 17.5499L6.49472 17.3731L13.3733 10.4946L13.5501 10.3178L13.3733 10.141L6.49472 3.26243Z" stroke="white" stroke-width="0.5"/>
<path d="M6.49472 3.26243L6.31794 3.08566L6.14116 3.26243L4.92881 4.47478L4.75026 4.65334L4.93059 4.83009L10.5292 10.3178L4.93059 15.8055L4.75026 15.9822L4.92881 16.1608L6.14116 17.3731L6.31794 17.5499L6.49472 17.3731L13.3733 10.4946L13.5501 10.3178L13.3733 10.141L6.49472 3.26243Z" stroke="url(#paint1_linear_212_2820)" stroke-width="0.5"/>
<defs>
<linearGradient id="paint0_linear_212_2820" x1="9.15106" y1="3.43921" x2="9.15106" y2="17.1964" gradientUnits="userSpaceOnUse">
<stop stop-color="white"/>
<stop offset="1" stop-color="white" stop-opacity="0"/>
</linearGradient>
<linearGradient id="paint1_linear_212_2820" x1="9.15106" y1="3.43921" x2="9.15106" y2="17.1964" gradientUnits="userSpaceOnUse">
<stop stop-color="white"/>
<stop offset="1" stop-color="white" stop-opacity="0"/>
</linearGradient>
</defs>
</svg>
