<svg width="17" height="21" viewBox="0 0 17 21" fill="none" xmlns="http://www.w3.org/2000/svg">
<path d="M10.5053 3.26243L10.6821 3.08566L10.8588 3.26243L12.0712 4.47478L12.2497 4.65334L12.0694 4.83009L6.4708 10.3178L12.0694 15.8055L12.2497 15.9822L12.0712 16.1608L10.8588 17.3731L10.6821 17.5499L10.5053 17.3731L3.6267 10.4946L3.44993 10.3178L3.6267 10.141L10.5053 3.26243Z" fill="white"/>
<path d="M10.5053 3.26243L10.6821 3.08566L10.8588 3.26243L12.0712 4.47478L12.2497 4.65334L12.0694 4.83009L6.4708 10.3178L12.0694 15.8055L12.2497 15.9822L12.0712 16.1608L10.8588 17.3731L10.6821 17.5499L10.5053 17.3731L3.6267 10.4946L3.44993 10.3178L3.6267 10.141L10.5053 3.26243Z" fill="url(#paint0_linear_212_2815)"/>
<path d="M10.5053 3.26243L10.6821 3.08566L10.8588 3.26243L12.0712 4.47478L12.2497 4.65334L12.0694 4.83009L6.4708 10.3178L12.0694 15.8055L12.2497 15.9822L12.0712 16.1608L10.8588 17.3731L10.6821 17.5499L10.5053 17.3731L3.6267 10.4946L3.44993 10.3178L3.6267 10.141L10.5053 3.26243Z" stroke="white" stroke-width="0.5"/>
<path d="M10.5053 3.26243L10.6821 3.08566L10.8588 3.26243L12.0712 4.47478L12.2497 4.65334L12.0694 4.83009L6.4708 10.3178L12.0694 15.8055L12.2497 15.9822L12.0712 16.1608L10.8588 17.3731L10.6821 17.5499L10.5053 17.3731L3.6267 10.4946L3.44993 10.3178L3.6267 10.141L10.5053 3.26243Z" stroke="url(#paint1_linear_212_2815)" stroke-width="0.5"/>
<defs>
<linearGradient id="paint0_linear_212_2815" x1="7.84894" y1="3.43921" x2="7.84894" y2="17.1964" gradientUnits="userSpaceOnUse">
<stop stop-color="white"/>
<stop offset="1" stop-color="white" stop-opacity="0"/>
</linearGradient>
<linearGradient id="paint1_linear_212_2815" x1="7.84894" y1="3.43921" x2="7.84894" y2="17.1964" gradientUnits="userSpaceOnUse">
<stop stop-color="white"/>
<stop offset="1" stop-color="white" stop-opacity="0"/>
</linearGradient>
</defs>
</svg>
