<svg width="58" height="58" viewBox="0 0 58 58" fill="none" xmlns="http://www.w3.org/2000/svg">
<circle cx="29" cy="29" r="29" fill="#405BFF"/>
<path d="M25.2484 15.4586L24.9177 15.1279L24.5869 15.4586L22.3187 17.7269L21.9846 18.061L22.322 18.3917L32.7968 28.659L22.322 38.9263L21.9846 39.257L22.3187 39.591L24.5869 41.8593L24.9177 42.1901L25.2484 41.8593L38.118 28.9897L38.4488 28.659L38.118 28.3282L25.2484 15.4586Z" fill="white"/>
<path d="M25.2484 15.4586L24.9177 15.1279L24.5869 15.4586L22.3187 17.7269L21.9846 18.061L22.322 18.3917L32.7968 28.659L22.322 38.9263L21.9846 39.257L22.3187 39.591L24.5869 41.8593L24.9177 42.1901L25.2484 41.8593L38.118 28.9897L38.4488 28.659L38.118 28.3282L25.2484 15.4586Z" fill="url(#paint0_linear_21_5516)"/>
<path d="M25.2484 15.4586L24.9177 15.1279L24.5869 15.4586L22.3187 17.7269L21.9846 18.061L22.322 18.3917L32.7968 28.659L22.322 38.9263L21.9846 39.257L22.3187 39.591L24.5869 41.8593L24.9177 42.1901L25.2484 41.8593L38.118 28.9897L38.4488 28.659L38.118 28.3282L25.2484 15.4586Z" stroke="white" stroke-width="0.935484"/>
<path d="M25.2484 15.4586L24.9177 15.1279L24.5869 15.4586L22.3187 17.7269L21.9846 18.061L22.322 18.3917L32.7968 28.659L22.322 38.9263L21.9846 39.257L22.3187 39.591L24.5869 41.8593L24.9177 42.1901L25.2484 41.8593L38.118 28.9897L38.4488 28.659L38.118 28.3282L25.2484 15.4586Z" stroke="url(#paint1_linear_21_5516)" stroke-width="0.935484"/>
<defs>
<linearGradient id="paint0_linear_21_5516" x1="30.2183" y1="15.7894" x2="30.2183" y2="41.5286" gradientUnits="userSpaceOnUse">
<stop stop-color="white"/>
<stop offset="1" stop-color="white" stop-opacity="0"/>
</linearGradient>
<linearGradient id="paint1_linear_21_5516" x1="30.2183" y1="15.7894" x2="30.2183" y2="41.5286" gradientUnits="userSpaceOnUse">
<stop stop-color="white"/>
<stop offset="1" stop-color="white" stop-opacity="0"/>
</linearGradient>
</defs>
</svg>
