<svg width="24" height="24" viewBox="0 0 24 24" fill="none" xmlns="http://www.w3.org/2000/svg">
<path d="M7.58974 21C7.1339 21 6.70678 20.8982 6.30838 20.6946C5.90906 20.4911 5.58405 20.2083 5.33333 19.8464L0.512821 13.0607C0.17094 12.5857 0 12.0655 0 11.5C0 10.9345 0.17094 10.4143 0.512821 9.93929L5.33333 3.15357C5.58405 2.79167 5.90906 2.50893 6.30838 2.30536C6.70678 2.10179 7.1339 2 7.58974 2H21.265C22.0171 2 22.6612 2.266 23.1973 2.798C23.7324 3.32909 24 3.96786 24 4.71429V18.2857C24 19.0321 23.7324 19.6714 23.1973 20.2034C22.6612 20.7345 22.0171 21 21.265 21H7.58974ZM9.88034 15.9786C10.1311 16.2274 10.4501 16.3518 10.8376 16.3518C11.2251 16.3518 11.5442 16.2274 11.7949 15.9786L14.3932 13.4L16.9915 15.9786C17.2422 16.2274 17.5613 16.3518 17.9487 16.3518C18.3362 16.3518 18.6553 16.2274 18.906 15.9786C19.1567 15.7298 19.2821 15.4131 19.2821 15.0286C19.2821 14.644 19.1567 14.3274 18.906 14.0786L16.3077 11.5L18.906 8.92143C19.1567 8.67262 19.2821 8.35595 19.2821 7.97143C19.2821 7.5869 19.1567 7.27024 18.906 7.02143C18.6553 6.77262 18.3362 6.64821 17.9487 6.64821C17.5613 6.64821 17.2422 6.77262 16.9915 7.02143L14.3932 9.6L11.7949 7.02143C11.5442 6.77262 11.2251 6.64821 10.8376 6.64821C10.4501 6.64821 10.1311 6.77262 9.88034 7.02143C9.62963 7.27024 9.50427 7.5869 9.50427 7.97143C9.50427 8.35595 9.62963 8.67262 9.88034 8.92143L12.4786 11.5L9.88034 14.0786C9.62963 14.3274 9.50427 14.644 9.50427 15.0286C9.50427 15.4131 9.62963 15.7298 9.88034 15.9786Z" fill="#405BFF"/>
</svg>
