<svg width="19" height="19" viewBox="0 0 19 19" fill="none" xmlns="http://www.w3.org/2000/svg">
<path d="M15.35 4.7526C16.2875 5.8926 16.865 7.2801 17 8.7501H15.455C15.305 7.6776 14.87 6.6651 14.195 5.8251L15.35 4.7526ZM10.25 2.0376C11.72 2.1801 13.1075 2.7501 14.2475 3.6951L13.175 4.7676C12.3275 4.1001 11.315 3.6801 10.25 3.5376V2.0376ZM8.75 2.0451C7.28 2.1951 5.8925 2.7726 4.7525 3.7026L5.825 4.7676C6.6725 4.1076 7.685 3.6801 8.75 3.5451V2.0451ZM3.695 4.7526L4.7225 5.7951V5.8251C4.0625 6.6726 3.635 7.6851 3.5 8.7501H2C2.1575 7.2801 2.75 5.8851 3.695 4.7526ZM2 11.0001V14.7501L3.2 13.5501C4.535 15.6276 6.8525 17.0001 9.5 17.0001C13.115 17.0001 16.1525 14.4126 16.85 11.0001H15.3125C14.645 13.5876 12.29 15.5001 9.5 15.5001C7.2875 15.5001 5.2925 14.2926 4.25 12.5001L5.75 11.0001H2ZM9.5 13.2501L10.67 10.6851L13.25 9.5001L10.67 8.3301L9.5 5.7501L8.3225 8.3301L5.75 9.5001L8.3225 10.6851L9.5 13.2501Z" fill="black"/>
</svg>
