<svg width="19" height="19" viewBox="0 0 19 19" fill="none" xmlns="http://www.w3.org/2000/svg">
<path d="M14.75 2.75H4.25C3.4175 2.75 2.75 3.4175 2.75 4.25V14.75C2.75 15.5825 3.425 16.25 4.25 16.25H14.75C15.5825 16.25 16.25 15.5825 16.25 14.75V4.25C16.25 3.4175 15.575 2.75 14.75 2.75ZM12.575 12.425C11.8025 12.425 11.0675 12.125 10.5125 11.57L10.0325 11.09L11.0975 10.0325L11.57 10.505C11.84 10.775 12.2 10.925 12.5825 10.925C13.3625 10.925 14 10.2875 14 9.5C14 8.7125 13.3625 8.075 12.575 8.075C12.2 8.075 11.84 8.225 11.57 8.495L8.4875 11.57C7.9325 12.125 7.205 12.425 6.425 12.425C4.8125 12.425 3.5 11.1125 3.5 9.5C3.5 7.8875 4.8125 6.575 6.425 6.575C7.205 6.575 7.9325 6.875 8.4875 7.43L8.9675 7.91L7.9025 8.975L7.43 8.495C7.16 8.225 6.8 8.075 6.425 8.075C5.6375 8.075 5 8.7125 5 9.5C5 10.2875 5.6375 10.925 6.425 10.925C6.8 10.925 7.16 10.775 7.43 10.505L10.5125 7.43C11.0675 6.875 11.795 6.575 12.575 6.575C14.1875 6.575 15.5 7.8875 15.5 9.5C15.5 11.1125 14.1875 12.425 12.575 12.425Z" fill="#191919"/>
</svg>
