<svg width="18" height="19" viewBox="0 0 18 19" fill="none" xmlns="http://www.w3.org/2000/svg">
<path d="M13.5665 9.3275L14.669 14.075L10.499 11.555L6.32903 14.075L7.42403 9.3275L3.74903 6.125L8.60153 5.72L10.499 1.25L12.3965 5.72L17.249 6.125L13.5665 9.3275ZM1.49903 9.8225C1.64153 9.8225 1.78403 9.7775 1.91153 9.695L4.31153 8.1125L3.13403 7.0925L1.08653 8.4425C0.740783 8.6675 0.644783 9.125 0.869033 9.5C1.01903 9.7025 1.25903 9.8225 1.49903 9.8225ZM0.869033 16.6625C1.01903 16.88 1.25903 17 1.49903 17C1.64153 17 1.78403 16.9625 1.91153 16.88L4.99403 14.8475L5.24903 13.82L5.48153 12.7325L1.08653 15.62C0.740783 15.8525 0.644783 16.3175 0.869033 16.6625ZM1.08653 12.035C0.740783 12.26 0.644783 12.725 0.869033 13.07C1.01903 13.295 1.25903 13.4075 1.49903 13.4075C1.64153 13.4075 1.78403 13.37 1.91153 13.2875L5.97653 10.625L6.17903 9.7325L5.48903 9.125L1.08653 12.035Z" fill="black"/>
</svg>
