<svg width="19" height="19" viewBox="0 0 19 19" fill="none" xmlns="http://www.w3.org/2000/svg">
<path d="M7.1 14.1609C7.36667 14.5087 7.5 14.9261 7.5 15.413C7.5 16.5957 6.63333 17.5 5.5 17.5C4.36667 17.5 3.5 16.5957 3.5 15.413C3.5 14.2304 4.36667 13.3261 5.5 13.3261C5.76667 13.3261 6.03333 13.3957 6.3 13.5348L7.23333 12.2826C6.63333 11.587 6.36667 10.613 6.5 9.7087L5.16667 9.22174C4.83333 9.77826 4.23333 10.1957 3.5 10.1957C2.36667 10.1957 1.5 9.2913 1.5 8.1087C1.5 6.92609 2.36667 6.02174 3.5 6.02174C4.63333 6.02174 5.5 6.92609 5.5 8.1087V8.24783L6.83333 8.73478C7.23333 7.9 8.03333 7.27391 8.96667 7.13478V5.60435C8.16667 5.39565 7.5 4.56087 7.5 3.58696C7.5 2.40435 8.36667 1.5 9.5 1.5C10.6333 1.5 11.5 2.40435 11.5 3.58696C11.5 4.56087 10.8333 5.39565 10.0333 5.60435V7.13478C10.9667 7.27391 11.7667 7.9 12.1667 8.73478L13.5 8.24783V8.1087C13.5 6.92609 14.3667 6.02174 15.5 6.02174C16.6333 6.02174 17.5 6.92609 17.5 8.1087C17.5 9.2913 16.6333 10.1957 15.5 10.1957C14.7667 10.1957 14.1667 9.77826 13.8333 9.22174L12.5 9.7087C12.6333 10.613 12.3667 11.587 11.7667 12.2826L12.7 13.5348C12.9667 13.3957 13.2333 13.3261 13.5 13.3261C14.6333 13.3261 15.5 14.2304 15.5 15.413C15.5 16.5957 14.6333 17.5 13.5 17.5C12.3667 17.5 11.5 16.5957 11.5 15.413C11.5 14.9261 11.6333 14.5087 11.9 14.1609L10.9667 12.9087C10.0333 13.4652 8.96667 13.4652 8.03333 12.9087L7.1 14.1609Z" fill="black"/>
</svg>
