<svg width="18" height="18" viewBox="0 0 18 18" fill="none" xmlns="http://www.w3.org/2000/svg">
<g clip-path="url(#clip0_5450_124468)">
<path d="M14 14H4V4H14M18 8V6H16V4C16 2.89 15.1 2 14 2H12V0H10V2H8V0H6V2H4C2.89 2 2 2.89 2 4V6H0V8H2V10H0V12H2V14C2 14.5304 2.21071 15.0391 2.58579 15.4142C2.96086 15.7893 3.46957 16 4 16H6V18H8V16H10V18H12V16H14C14.5304 16 15.0391 15.7893 15.4142 15.4142C15.7893 15.0391 16 14.5304 16 14V12H18V10H16V8M10 10H8V8H10M12 6H6V12H12V6Z" fill="black"/>
</g>
<defs>
<clipPath id="clip0_5450_124468">
<rect width="18" height="18" fill="white"/>
</clipPath>
</defs>
</svg>
