<svg width="18" height="18" viewBox="0 0 18 18" fill="none" xmlns="http://www.w3.org/2000/svg">
<g clip-path="url(#clip0_6446_265426)">
<path d="M5.41879 17.9597C4.926 17.9597 4.5043 17.7844 4.15368 17.4337C3.80246 17.0825 3.62685 16.6605 3.62685 16.1677C3.62685 15.675 3.80246 15.253 4.15368 14.9017C4.5043 14.5511 4.926 14.3758 5.41879 14.3758C5.91157 14.3758 6.33327 14.5511 6.6839 14.9017C7.03512 15.253 7.21073 15.675 7.21073 16.1677C7.21073 16.6605 7.03512 17.0825 6.6839 17.4337C6.33327 17.7844 5.91157 17.9597 5.41879 17.9597ZM14.3785 17.9597C13.8857 17.9597 13.464 17.7844 13.1134 17.4337C12.7622 17.0825 12.5865 16.6605 12.5865 16.1677C12.5865 15.675 12.7622 15.253 13.1134 14.9017C13.464 14.5511 13.8857 14.3758 14.3785 14.3758C14.8713 14.3758 15.2933 14.5511 15.6445 14.9017C15.9951 15.253 16.1704 15.675 16.1704 16.1677C16.1704 16.6605 15.9951 17.0825 15.6445 17.4337C15.2933 17.7844 14.8713 17.9597 14.3785 17.9597ZM5.41879 13.4798C4.74681 13.4798 4.23909 13.1848 3.89564 12.5946C3.55218 12.0051 3.53725 11.4191 3.85084 10.8367L5.0604 8.64159L1.83491 1.83222H0.916539C0.662681 1.83222 0.453622 1.74621 0.28936 1.57418C0.125099 1.40275 0.0429688 1.19011 0.0429688 0.936253C0.0429688 0.682395 0.128982 0.469453 0.301008 0.297426C0.472437 0.125998 0.68508 0.0402832 0.938939 0.0402832H2.39489C2.55915 0.0402832 2.71595 0.0850818 2.86527 0.174679C3.0146 0.264276 3.1266 0.391205 3.20126 0.555466L3.80604 1.83222H17.0216C17.4248 1.83222 17.701 1.98155 17.8504 2.28021C17.9997 2.57886 17.9922 2.89245 17.828 3.22098L14.6473 8.95518C14.483 9.25384 14.2665 9.4853 13.9977 9.64956C13.7289 9.81382 13.4228 9.89595 13.0793 9.89595H6.40435L5.41879 11.6879H15.2969C15.5507 11.6879 15.7598 11.7736 15.924 11.945C16.0883 12.1171 16.1704 12.33 16.1704 12.5839C16.1704 12.8377 16.0844 13.0504 15.9124 13.2218C15.741 13.3938 15.5283 13.4798 15.2745 13.4798H5.41879Z" fill="#282828"/>
</g>
<defs>
<clipPath id="clip0_6446_265426">
<rect width="18" height="18" fill="white"/>
</clipPath>
</defs>
</svg>
