<svg width="18" height="18" viewBox="0 0 18 18" fill="none" xmlns="http://www.w3.org/2000/svg">
<path d="M15.63 1.63501L12.6825 2.22001L14.7375 4.87501L16.215 4.57501L15.63 1.63501ZM10.4775 2.65501L9.00001 2.94751L11.0625 5.59501L12.5325 5.30251L10.4775 2.65501ZM6.80251 3.37501L5.32501 3.68251L7.38751 6.33001L8.85751 6.03751L6.80251 3.37501ZM3.12001 4.12501L2.38501 4.26751C1.9953 4.34537 1.65241 4.57471 1.43164 4.90516C1.21087 5.23562 1.13026 5.64017 1.20751 6.03001L1.50001 7.50001L5.17501 6.77251L3.12001 4.12501ZM1.50001 7.50001V15C1.50001 15.8325 2.17501 16.5 3.00001 16.5H15C15.8325 16.5 16.5 15.8325 16.5 15V7.50001H1.50001Z" fill="#191919"/>
</svg>
