<svg width="18" height="18" viewBox="0 0 18 18" fill="none" xmlns="http://www.w3.org/2000/svg">
<path d="M7.80711 17L5.77565 13.2192L2 11.1849L3.45691 9.74658L6.43228 10.2603L8.52531 8.16438L2.02052 5.39041L3.74419 3.62329L11.6443 5.02055L14.1888 2.4726C14.5034 2.15753 14.8933 2 15.3584 2C15.8235 2 16.2134 2.15753 16.528 2.4726C16.8427 2.78767 17 3.17466 17 3.63356C17 4.09247 16.8427 4.47945 16.528 4.79452L13.9631 7.36301L15.3584 15.2534L13.6142 17L10.8235 10.4863L8.73051 12.5822L9.26402 15.5411L7.80711 17Z" fill="#1C1B1F"/>
</svg>
