<svg width="18" height="19" viewBox="0 0 18 19" fill="none" xmlns="http://www.w3.org/2000/svg">
<path d="M5.25 2.43408H12.75C13.1478 2.43408 13.5294 2.59212 13.8107 2.87342C14.092 3.15473 14.25 3.53626 14.25 3.93408V15.9341C14.25 16.3319 14.092 16.7134 13.8107 16.9947C13.5294 17.276 13.1478 17.4341 12.75 17.4341H5.25C4.85218 17.4341 4.47064 17.276 4.18934 16.9947C3.90804 16.7134 3.75 16.3319 3.75 15.9341V3.93408C3.75 3.53626 3.90804 3.15473 4.18934 2.87342C4.47064 2.59212 4.85218 2.43408 5.25 2.43408ZM5.25 3.93408V6.93408H12.75V3.93408H5.25ZM5.25 8.43408V9.93408H6.75V8.43408H5.25ZM8.25 8.43408V9.93408H9.75V8.43408H8.25ZM11.25 8.43408V9.93408H12.75V8.43408H11.25ZM5.25 11.4341V12.9341H6.75V11.4341H5.25ZM8.25 11.4341V12.9341H9.75V11.4341H8.25ZM11.25 11.4341V12.9341H12.75V11.4341H11.25ZM5.25 14.4341V15.9341H6.75V14.4341H5.25ZM8.25 14.4341V15.9341H9.75V14.4341H8.25ZM11.25 14.4341V15.9341H12.75V14.4341H11.25Z" fill="black"/>
</svg>
