<svg width="20" height="16" viewBox="0 0 20 16" fill="none" xmlns="http://www.w3.org/2000/svg">
<path fill-rule="evenodd" clip-rule="evenodd" d="M9.40029 3.42959H8.14616L5.40584 0.638651L6.03292 0L9.40029 3.42959ZM12.2452 3.42959H10.9825L13.7474 0.651402L14.3703 1.29436L12.2452 3.42959ZM2.78904 4.42299C1.2487 4.42299 0 5.69475 0 7.26354V13.1594C0 14.7282 1.2487 16 2.78904 16H17.211C18.7513 16 20 14.7282 20 13.1594V7.26354C20 5.69475 18.7513 4.42299 17.211 4.42299H2.78904ZM9.95159 13.4516H8.54931L6.87175 7.24658H8.24478L9.26284 11.4481L10.296 7.24658H11.621L9.95159 13.4516ZM11.5268 7.32199H11.5266L9.89781 13.3761H8.60284L8.60285 13.3762H9.89798L11.5268 7.32199ZM8.18968 7.32199H8.18953L9.26217 11.7488L9.26225 11.7484L8.18968 7.32199ZM6.12704 8.39284H4.51421V8.3929H6.12704V8.39284ZM4.51408 13.3762H3.33827V8.39284H1.72532V7.32203H1.72519V8.3929H3.33814V13.3762H4.51408V13.3762ZM4.58514 8.46831H6.19809V7.24662H1.65413V8.46831H3.26708V13.4517H4.58514V8.46831ZM12.9066 7.67173C12.9066 6.56688 13.786 5.67123 14.8708 5.67123H16.8668C17.9516 5.67123 18.831 6.56688 18.831 7.67173V12.7646C18.831 13.8694 17.9516 14.765 16.8668 14.765H14.8708C13.786 14.765 12.9066 13.8694 12.9066 12.7646V7.67173Z" fill="#2C2C2C"/>
</svg>
